<svg viewBox="0 0 512 512" width="32" height="32" xmlns="http://www.w3.org/2000/svg">
  <path d="M 160.341 53.337 C 125.944 61.585 91.78 70.556 57.88 80.24 C 54.784 81.112 52.032 82.724 49.938 84.891 C 47.844 87.057 46.491 89.693 46.034 92.496 C 26.025 223.145 72.253 318.467 127.403 381.263 C 150.753 408.114 178.595 431.771 210.001 451.444 C 222.497 459.112 233.549 464.642 242.253 468.196 C 246.587 469.986 250.127 471.181 252.835 471.904 C 254.02 472.264 255.242 472.528 256.483 472.689 C 257.71 472.517 258.918 472.253 260.094 471.904 C 262.84 471.181 266.379 469.986 270.712 468.196 C 279.381 464.642 290.468 459.079 302.964 451.444 C 334.37 431.771 362.211 408.114 385.561 381.263 C 440.713 318.501 486.941 223.145 466.933 92.496 C 466.481 89.692 465.127 87.054 463.034 84.886 C 460.938 82.72 458.183 81.109 455.088 80.24 C 431.575 73.545 391.883 62.639 352.624 53.367 C 312.535 43.908 275.66 36.9 256.483 36.9 C 237.342 36.9 200.43 43.908 160.341 53.367 L 160.341 53.337 Z M 150.735 20.965 C 189.921 11.694 231.562 3.365 256.483 3.365 C 281.403 3.365 323.045 11.694 362.23 20.965 C 402.32 30.394 442.736 41.551 466.5 48.308 C 476.434 51.163 485.244 56.4 491.913 63.415 C 498.583 70.432 502.844 78.942 504.204 87.97 C 525.729 228.677 475.78 332.959 415.179 401.942 C 389.479 431.455 358.835 457.442 324.274 479.038 C 312.322 486.511 299.659 493.082 286.423 498.681 C 276.311 502.831 265.44 506.222 256.483 506.222 C 247.526 506.222 236.691 502.831 226.543 498.681 C 213.307 493.082 200.644 486.511 188.693 479.038 C 154.13 457.442 123.488 431.455 97.788 401.942 C 37.185 332.959 -12.764 228.677 8.762 87.97 C 10.123 78.942 14.383 70.432 21.053 63.415 C 27.723 56.4 36.532 51.163 46.468 48.308 C 80.965 38.464 115.731 29.348 150.735 20.965 Z" fill="#B2B2B2" />
  <path d="M 359.545 165.078 C 361.227 166.538 362.562 168.272 363.472 170.182 C 364.384 172.09 364.851 174.138 364.851 176.204 C 364.851 178.271 364.384 180.318 363.472 182.227 C 362.562 184.136 361.227 185.871 359.545 187.331 L 251.197 281.615 C 249.52 283.079 247.527 284.24 245.334 285.033 C 243.139 285.826 240.788 286.233 238.412 286.233 C 236.037 286.233 233.685 285.826 231.491 285.033 C 229.297 284.24 227.304 283.079 225.627 281.615 L 171.453 234.473 C 169.774 233.012 168.442 231.278 167.533 229.368 C 166.625 227.459 166.157 225.414 166.157 223.347 C 166.157 221.281 166.625 219.235 167.533 217.325 C 168.442 215.418 169.774 213.683 171.453 212.222 C 173.131 210.76 175.125 209.602 177.318 208.811 C 179.512 208.02 181.863 207.613 184.238 207.613 C 186.613 207.613 188.964 208.02 191.157 208.811 C 193.351 209.602 195.344 210.76 197.023 212.222 L 238.412 248.27 L 333.975 165.078 C 335.654 163.615 337.645 162.454 339.84 161.662 C 342.034 160.87 344.385 160.462 346.761 160.462 C 349.136 160.462 351.487 160.87 353.681 161.662 C 355.876 162.454 357.87 163.615 359.545 165.078 Z" fill="#B2B2B2" />
</svg>
